<svg id="visual" viewBox="0 0 900 600" width="900" height="600" xmlns="http://www.w3.org/2000/svg" xmlns:xlink="http://www.w3.org/1999/xlink" version="1.1"><rect x="0" y="0" width="900" height="600" fill="#f8f8f8"></rect><defs><linearGradient id="grad1_0" x1="33.3%" y1="100%" x2="100%" y2="0%"><stop offset="20%" stop-color="#f8f8f8" stop-opacity="1"></stop><stop offset="80%" stop-color="#f8f8f8" stop-opacity="1"></stop></linearGradient></defs><defs><linearGradient id="grad2_0" x1="0%" y1="100%" x2="66.7%" y2="0%"><stop offset="20%" stop-color="#f8f8f8" stop-opacity="1"></stop><stop offset="80%" stop-color="#f8f8f8" stop-opacity="1"></stop></linearGradient></defs><g transform="translate(900, 600)"><path d="M-378.6 0C-376 -51.3 -373.4 -102.6 -349.8 -144.9C-326.1 -187.1 -281.4 -220.3 -239 -239C-196.6 -257.7 -156.5 -261.9 -117.1 -282.7C-77.7 -303.6 -38.8 -341.1 0 -378.6L0 0Z" fill="#4CAF50"></path></g><g transform="translate(0, 0)"><path d="M378.6 0C338.9 35.4 299.2 70.7 286.4 118.6C273.6 166.5 287.8 227 267.7 267.7C247.6 308.4 193.1 329.4 142.7 344.6C92.4 359.8 46.2 369.2 0 378.6L0 0Z" fill="#4CAF50"></path></g></svg>