<svg id="visual" viewBox="0 0 900 600" width="900" height="600" xmlns="http://www.w3.org/2000/svg" xmlns:xlink="http://www.w3.org/1999/xlink" version="1.1"><rect x="0" y="0" width="900" height="600" fill="#f8f8f8"></rect><defs><linearGradient id="grad1_0" x1="33.3%" y1="100%" x2="100%" y2="0%"><stop offset="20%" stop-color="#f8f8f8" stop-opacity="1"></stop><stop offset="80%" stop-color="#f8f8f8" stop-opacity="1"></stop></linearGradient></defs><defs><linearGradient id="grad2_0" x1="0%" y1="100%" x2="66.7%" y2="0%"><stop offset="20%" stop-color="#f8f8f8" stop-opacity="1"></stop><stop offset="80%" stop-color="#f8f8f8" stop-opacity="1"></stop></linearGradient></defs><g transform="translate(900, 600)"><path d="M-378.6 0C-379.9 -56.4 -381.2 -112.8 -349.8 -144.9C-318.3 -176.9 -254.2 -184.6 -217.8 -217.8C-181.4 -251 -172.9 -309.8 -141.2 -340.9C-109.5 -372 -54.8 -375.3 0 -378.6L0 0Z" fill="#4CAF50"></path></g><g transform="translate(0, 0)"><path d="M378.6 0C374.4 53.1 370.3 106.1 343.7 142.4C317.1 178.6 268 198 234.1 234.1C200.1 270.1 181.4 322.9 144.9 349.8C108.4 376.6 54.2 377.6 0 378.6L0 0Z" fill="#4CAF50"></path></g></svg>