<svg id="visual" viewBox="0 0 900 600" width="900" height="600" xmlns="http://www.w3.org/2000/svg" xmlns:xlink="http://www.w3.org/1999/xlink" version="1.1"><rect x="0" y="0" width="900" height="600" fill="#f8f8f8"></rect><defs><linearGradient id="grad1_0" x1="33.3%" y1="0%" x2="100%" y2="100%"><stop offset="20%" stop-color="#f8f8f8" stop-opacity="1"></stop><stop offset="80%" stop-color="#f8f8f8" stop-opacity="1"></stop></linearGradient></defs><defs><linearGradient id="grad2_0" x1="0%" y1="0%" x2="66.7%" y2="100%"><stop offset="20%" stop-color="#f8f8f8" stop-opacity="1"></stop><stop offset="80%" stop-color="#f8f8f8" stop-opacity="1"></stop></linearGradient></defs><g transform="translate(900, 0)"><path d="M0 378.6C-40.7 345.8 -81.4 313 -120.9 291.9C-160.5 270.8 -199 261.4 -240.4 240.4C-281.9 219.4 -326.2 186.9 -349.8 144.9C-373.3 102.9 -375.9 51.4 -378.6 0L0 0Z" fill="#4CAF50"></path></g><g transform="translate(0, 600)"><path d="M0 -378.6C36.5 -345.5 73 -312.4 124.4 -300.3C175.8 -288.1 242 -296.9 267.7 -267.7C293.4 -238.4 278.4 -171.1 290.1 -120.2C301.8 -69.2 340.2 -34.6 378.6 0L0 0Z" fill="#4CAF50"></path></g></svg>