<!-- 
<svg xmlns="http://www.w3.org/2000/svg" version="1.1" xmlns:xlink="http://www.w3.org/1999/xlink" xmlns:svgjs="http://svgjs.dev/svgjs" viewBox="0 0 800 400">
    <path style="paint-order: fill; stroke: rgb(255, 255, 255); fill: rgb(255, 255, 255);" d="M -0.727 133.854 L 0.832 278.047 L 807.535 280.385 L 798.357 172.577 C 766.368 178.257 673.842 209.796 606.428 206.657 C 539.014 203.518 462.482 155.088 393.872 153.743 C 325.262 152.397 260.24 199.781 194.769 198.586 C 129.298 197.39 31.775 142.766 -0.512 134.097"/>
</svg> -->

<!-- <svg xmlns="http://www.w3.org/2000/svg" version="1.1" xmlns:xlink="http://www.w3.org/1999/xlink" xmlns:svgjs="http://svgjs.dev/svgjs" viewBox="0 0 800 400">
    <path style="paint-order: fill; stroke: rgb(255, 255, 255); fill: rgb(255, 255, 255);" d="M -0.727 183.854 L 0.832 328.047 L 807.535 330.385 L 798.357 222.577 C 766.368 228.257 673.842 259.796 606.428 256.657 C 539.014 253.518 462.482 205.088 393.872 203.743 C 325.262 202.397 260.24 249.781 194.769 248.586 C 129.298 247.39 31.775 192.766 -0.512 184.097"/>
</svg> -->

<svg xmlns="http://www.w3.org/2000/svg" version="1.1" xmlns:xlink="http://www.w3.org/1999/xlink" xmlns:svgjs="http://svgjs.dev/svgjs" viewBox="0 0 800 400">
    <path style="paint-order: fill; stroke: rgb(255, 255, 255); fill: rgb(255, 255, 255);" d="M -0.727 148.854 L 0.832 293.047 L 807.535 295.385 L 798.357 187.577 C 766.368 193.257 673.842 224.796 606.428 221.657 C 539.014 218.518 462.482 170.088 393.872 168.743 C 325.262 167.397 260.24 214.781 194.769 213.586 C 129.298 212.39 31.775 157.766 -0.512 149.097"/>
</svg>

