<svg id="visual" viewBox="0 0 960 540" width="960" height="540" xmlns="http://www.w3.org/2000/svg" xmlns:xlink="http://www.w3.org/1999/xlink" version="1.1"><rect x="0" y="0" width="960" height="540" fill="#FFFFFF"></rect><path d="M0 152L16 160C32 168 64 184 96 193.8C128 203.7 160 207.3 192 206.5C224 205.7 256 200.3 288 194C320 187.7 352 180.3 384 175.5C416 170.7 448 168.3 480 171C512 173.7 544 181.3 576 182C608 182.7 640 176.3 672 180C704 183.7 736 197.3 768 194.3C800 191.3 832 171.7 864 168.3C896 165 928 178 944 184.5L960 191L960 0L944 0C928 0 896 0 864 0C832 0 800 0 768 0C736 0 704 0 672 0C640 0 608 0 576 0C544 0 512 0 480 0C448 0 416 0 384 0C352 0 320 0 288 0C256 0 224 0 192 0C160 0 128 0 96 0C64 0 32 0 16 0L0 0Z" fill="#3fb932"></path><path d="M0 119L16 119.8C32 120.7 64 122.3 96 118C128 113.7 160 103.3 192 99.3C224 95.3 256 97.7 288 98C320 98.3 352 96.7 384 105.8C416 115 448 135 480 142.2C512 149.3 544 143.7 576 134.8C608 126 640 114 672 111.3C704 108.7 736 115.3 768 113.5C800 111.7 832 101.3 864 99.3C896 97.3 928 103.7 944 106.8L960 110L960 0L944 0C928 0 896 0 864 0C832 0 800 0 768 0C736 0 704 0 672 0C640 0 608 0 576 0C544 0 512 0 480 0C448 0 416 0 384 0C352 0 320 0 288 0C256 0 224 0 192 0C160 0 128 0 96 0C64 0 32 0 16 0L0 0Z" fill="#a9dd9a"></path><path d="M0 58L16 62.8C32 67.7 64 77.3 96 73.5C128 69.7 160 52.3 192 45.7C224 39 256 43 288 46.2C320 49.3 352 51.7 384 52.3C416 53 448 52 480 55.8C512 59.7 544 68.3 576 68.3C608 68.3 640 59.7 672 54.3C704 49 736 47 768 51.5C800 56 832 67 864 70.5C896 74 928 70 944 68L960 66L960 0L944 0C928 0 896 0 864 0C832 0 800 0 768 0C736 0 704 0 672 0C640 0 608 0 576 0C544 0 512 0 480 0C448 0 416 0 384 0C352 0 320 0 288 0C256 0 224 0 192 0C160 0 128 0 96 0C64 0 32 0 16 0L0 0Z" fill="#ffffff"></path></svg>