<svg id="visual" viewBox="0 0 960 540" width="960" height="540" xmlns="http://www.w3.org/2000/svg" xmlns:xlink="http://www.w3.org/1999/xlink" version="1.1"><rect x="0" y="0" width="960" height="540" fill="#FFFFFF"></rect><path d="M0 214L16 211.3C32 208.7 64 203.3 96 196.7C128 190 160 182 192 180.7C224 179.3 256 184.7 288 184.8C320 185 352 180 384 177.2C416 174.3 448 173.7 480 178.7C512 183.7 544 194.3 576 188.7C608 183 640 161 672 154.5C704 148 736 157 768 166.7C800 176.3 832 186.7 864 195.3C896 204 928 211 944 214.5L960 218L960 0L944 0C928 0 896 0 864 0C832 0 800 0 768 0C736 0 704 0 672 0C640 0 608 0 576 0C544 0 512 0 480 0C448 0 416 0 384 0C352 0 320 0 288 0C256 0 224 0 192 0C160 0 128 0 96 0C64 0 32 0 16 0L0 0Z" fill="#3fb932"></path><path d="M0 117L16 117.8C32 118.7 64 120.3 96 117C128 113.7 160 105.3 192 111.7C224 118 256 139 288 146.2C320 153.3 352 146.7 384 141.2C416 135.7 448 131.3 480 129.3C512 127.3 544 127.7 576 133.2C608 138.7 640 149.3 672 150.3C704 151.3 736 142.7 768 137.5C800 132.3 832 130.7 864 135C896 139.3 928 149.7 944 154.8L960 160L960 0L944 0C928 0 896 0 864 0C832 0 800 0 768 0C736 0 704 0 672 0C640 0 608 0 576 0C544 0 512 0 480 0C448 0 416 0 384 0C352 0 320 0 288 0C256 0 224 0 192 0C160 0 128 0 96 0C64 0 32 0 16 0L0 0Z" fill="#a9dd9a"></path><path d="M0 91L16 81.8C32 72.7 64 54.3 96 55C128 55.7 160 75.3 192 81C224 86.7 256 78.3 288 73.3C320 68.3 352 66.7 384 69C416 71.3 448 77.7 480 72.8C512 68 544 52 576 47.3C608 42.7 640 49.3 672 53.8C704 58.3 736 60.7 768 58.5C800 56.3 832 49.7 864 48.5C896 47.3 928 51.7 944 53.8L960 56L960 0L944 0C928 0 896 0 864 0C832 0 800 0 768 0C736 0 704 0 672 0C640 0 608 0 576 0C544 0 512 0 480 0C448 0 416 0 384 0C352 0 320 0 288 0C256 0 224 0 192 0C160 0 128 0 96 0C64 0 32 0 16 0L0 0Z" fill="#ffffff"></path></svg>