<svg id="visual" viewBox="0 0 960 540" width="960" height="540" xmlns="http://www.w3.org/2000/svg" xmlns:xlink="http://www.w3.org/1999/xlink" version="1.1"><rect x="0" y="0" width="960" height="540" fill="#ffffff"></rect><g transform="translate(465.76336216330515 262.3925815375742)"><path d="M133.8 -131.4C189.2 -113 260.8 -85.8 286.7 -36.2C312.5 13.4 292.7 85.5 247.7 124C202.8 162.6 132.9 167.8 74 178.5C15 189.2 -32.8 205.5 -68.9 191.4C-104.9 177.3 -129.1 132.9 -169.6 86.4C-210.2 40 -267.1 -8.6 -269.6 -56.8C-272.1 -105 -220.3 -152.8 -166.3 -171.5C-112.3 -190.1 -56.1 -179.4 -8.5 -169.3C39.2 -159.2 78.4 -149.7 133.8 -131.4" fill="#00ba0b"></path></g></svg>