<svg id="visual" viewBox="0 0 960 540" width="960" height="540" xmlns="http://www.w3.org/2000/svg" xmlns:xlink="http://www.w3.org/1999/xlink" version="1.1"><rect x="0" y="0" width="960" height="540" fill="#ffffff"></rect><g transform="translate(475.5816505151912 255.09959443145036)"><path d="M122.5 -145C157.1 -116.9 182.5 -76.8 209.2 -22.5C236 31.8 264.1 100.3 239.1 132.8C214.1 165.4 135.9 162 72.1 175.2C8.4 188.4 -41 218.2 -90.3 214.7C-139.6 211.2 -188.9 174.4 -216 125.6C-243.1 76.8 -248.1 16.1 -226.5 -28.4C-204.9 -72.9 -156.8 -101.2 -114.6 -127.9C-72.4 -154.6 -36.2 -179.8 3.9 -184.4C43.9 -189 87.8 -173 122.5 -145" fill="#00ba0b"></path></g></svg>